<?xml version="1.0" standalone="no"?>
<!DOCTYPE svg PUBLIC "-//W3C//DTD SVG 20010904//EN"
 "http://www.w3.org/TR/2001/REC-SVG-20010904/DTD/svg10.dtd">
<svg version="1.0" xmlns="http://www.w3.org/2000/svg"
 width="183.000000pt" height="183.000000pt" viewBox="0 0 183.000000 183.000000"
 preserveAspectRatio="xMidYMid meet">
<metadata>
Created by potrace 1.14, written by Peter Selinger 2001-2017
</metadata>
<g transform="translate(0.000000,183.000000) scale(0.100000,-0.100000)"
fill="#000000" stroke="none">
<path d="M624 1811 c-172 -58 -335 -242 -404 -455 -10 -32 -10 -40 2 -52 15
-15 48 -9 48 8 0 30 69 144 116 191 197 199 500 188 645 -23 39 -57 93 -202
103 -277 3 -24 9 -62 12 -85 4 -24 6 -110 6 -193 -1 -161 -1 -162 -81 -450
-23 -82 -43 -159 -45 -170 -2 -11 -9 -40 -16 -64 -23 -88 -38 -195 -29 -218
21 -56 64 -9 103 114 14 46 28 93 30 105 3 13 18 79 35 148 16 69 37 173 45
231 27 182 159 532 352 937 101 211 106 223 93 238 -22 27 -49 -7 -122 -159
-109 -224 -277 -614 -277 -644 0 -5 -6 -17 -12 -26 -11 -15 -13 -10 -14 30 -2
178 -42 377 -108 531 -66 156 -118 222 -215 269 -70 35 -188 41 -267 14z"/>
<path d="M813 1300 c-69 -28 -84 -192 -23 -258 23 -24 77 -30 112 -11 61 32
64 208 5 257 -21 18 -66 23 -94 12z m77 -40 c21 -21 21 -21 25 -90 4 -90 -29
-139 -82 -119 -37 14 -49 57 -44 162 1 32 33 67 61 67 11 0 29 -9 40 -20z"/>
<path d="M385 1056 c-53 -19 -105 -57 -121 -88 -19 -37 -23 -33 -25 25 -3 57
-9 68 -37 61 -18 -5 -21 -12 -17 -43 2 -20 4 -168 4 -329 l1 -293 28 3 27 3 1
221 c0 162 4 230 14 255 36 89 108 139 207 144 108 6 167 -34 190 -130 2 -11
5 -126 5 -255 l0 -236 30 -2 30 -2 -4 262 c-3 249 -4 265 -26 305 -27 51 -73
87 -130 103 -50 13 -134 11 -177 -4z"/>
</g>
</svg>
